<svg width="112" height="214" viewBox="0 0 112 214" fill="none" xmlns="http://www.w3.org/2000/svg">
<path d="M0.224 21.64C3.488 18.76 7.04 16.024 10.88 13.432C14.816 10.84 19.04 8.58399 23.552 6.664C28.064 4.744 32.96 3.256 38.24 2.19999C43.52 1.048 49.232 0.471998 55.376 0.471998C63.728 0.471998 71.312 1.62399 78.128 3.92799C85.04 6.23199 90.944 9.54399 95.84 13.864C100.736 18.088 104.528 23.224 107.216 29.272C109.904 35.32 111.248 42.088 111.248 49.576C111.248 56.872 110.192 63.208 108.08 68.584C105.968 73.864 103.328 78.472 100.16 82.408C96.992 86.344 93.488 89.752 89.648 92.632C85.904 95.512 82.352 98.248 78.992 100.84C75.632 103.336 72.704 105.832 70.208 108.328C67.808 110.728 66.368 113.464 65.888 116.536L62.576 137.56H38.24L35.792 114.088C35.216 109.576 35.84 105.64 37.664 102.28C39.584 98.824 42.08 95.704 45.152 92.92C48.32 90.04 51.824 87.304 55.664 84.712C59.504 82.024 63.104 79.144 66.464 76.072C69.824 72.904 72.608 69.4 74.816 65.56C77.12 61.624 78.272 56.968 78.272 51.592C78.272 48.136 77.6 45.064 76.256 42.376C75.008 39.592 73.232 37.24 70.928 35.32C68.624 33.304 65.84 31.768 62.576 30.712C59.408 29.656 55.952 29.128 52.208 29.128C46.736 29.128 42.08 29.752 38.24 31C34.496 32.152 31.28 33.496 28.592 35.032C26 36.472 23.792 37.816 21.968 39.064C20.144 40.216 18.512 40.792 17.072 40.792C13.616 40.792 11.12 39.352 9.584 36.472L0.224 21.64ZM27.44 191.416C27.44 188.44 27.968 185.608 29.024 182.92C30.176 180.232 31.712 177.928 33.632 176.008C35.552 174.088 37.856 172.552 40.544 171.4C43.232 170.248 46.112 169.672 49.184 169.672C52.256 169.672 55.088 170.248 57.68 171.4C60.368 172.552 62.672 174.088 64.592 176.008C66.608 177.928 68.192 180.232 69.344 182.92C70.496 185.608 71.072 188.44 71.072 191.416C71.072 194.488 70.496 197.368 69.344 200.056C68.192 202.648 66.608 204.904 64.592 206.824C62.672 208.744 60.368 210.232 57.68 211.288C55.088 212.44 52.256 213.016 49.184 213.016C46.112 213.016 43.232 212.44 40.544 211.288C37.856 210.232 35.552 208.744 33.632 206.824C31.712 204.904 30.176 202.648 29.024 200.056C27.968 197.368 27.44 194.488 27.44 191.416Z" fill="black"/>
</svg>
