<svg width="104" height="88" viewBox="0 0 104 88" fill="none" xmlns="http://www.w3.org/2000/svg">
<path d="M101 54.0188L102.635 55.9103C103.184 55.4354 103.5 54.7451 103.5 54.0188C103.5 53.2926 103.184 52.6023 102.635 52.1274L101 54.0188ZM67.1348 21.4447C66.0902 20.5418 64.5114 20.6567 63.6086 21.7014C62.7057 22.746 62.8206 24.3247 63.8652 25.2276L67.1348 21.4447ZM63.8652 82.8101C62.8206 83.713 62.7057 85.2917 63.6086 86.3363C64.5114 87.3809 66.0902 87.4958 67.1348 86.593L63.8652 82.8101ZM0.5 0C0.5 12.8566 3.00175 22.9278 7.26364 30.7812C11.533 38.6486 17.4963 44.1556 24.1986 47.9794C37.4982 55.5672 53.705 56.5188 65.5 56.5188V51.5188C53.795 51.5188 38.7518 50.5258 26.6764 43.6365C20.6912 40.2218 15.4357 35.3572 11.6582 28.3964C7.87325 21.4217 5.5 12.2082 5.5 0H0.5ZM65.5 56.5188H101V51.5188H65.5V56.5188ZM102.635 52.1274L67.1348 21.4447L63.8652 25.2276L99.3652 55.9103L102.635 52.1274ZM99.3652 52.1274L63.8652 82.8101L67.1348 86.593L102.635 55.9103L99.3652 52.1274Z" fill="#D5D5D5"/>
</svg>
