<svg width="25" height="25" viewBox="0 0 25 25" fill="none" xmlns="http://www.w3.org/2000/svg">
<path d="M1.56348 11.5533C0.866418 11.5533 0.301341 12.1184 0.301341 12.8154C0.301341 13.5125 0.866418 14.0776 1.56348 14.0776V11.5533ZM23.0198 14.0776C23.7168 14.0776 24.2819 13.5125 24.2819 12.8154C24.2819 12.1184 23.7168 11.5533 23.0198 11.5533V14.0776ZM13.5538 2.08728C13.5538 1.39022 12.9887 0.825144 12.2916 0.825144C11.5946 0.825144 11.0295 1.39022 11.0295 2.08728H13.5538ZM11.0295 23.5436C11.0295 24.2407 11.5946 24.8057 12.2916 24.8057C12.9887 24.8057 13.5538 24.2407 13.5538 23.5436H11.0295ZM1.56348 14.0776H12.2916V11.5533H1.56348V14.0776ZM12.2916 14.0776H23.0198V11.5533H12.2916V14.0776ZM11.0295 2.08728V12.8154H13.5538V2.08728H11.0295ZM13.5538 23.5436V12.8154H11.0295V23.5436H13.5538Z"/>
</svg>
