<svg width="81" height="97" viewBox="0 0 81 97" fill="none" xmlns="http://www.w3.org/2000/svg">
<path fill-rule="evenodd" clip-rule="evenodd" d="M80.2222 84.1821C80.2222 84.1821 75.5067 52.998 73.9286 46.6753C72.3599 40.362 70.3919 36.8091 66.0757 35.2331C63.3438 34.2351 57.9084 30.8843 54.2618 28.5472C55.1829 26.7344 56.2222 21.551 56.2222 18.9171C56.2222 9.24347 48.7792 0.417053 40.219 0.417053C31.6651 0.417053 24.7222 9.24031 24.7222 18.9171C24.7222 21.551 25.2552 26.7312 26.1763 28.5472C22.5328 30.8843 17.0942 34.2351 14.3687 35.2331C10.043 36.8091 8.07504 40.362 6.50635 46.6753C4.93766 52.998 0.222166 84.1821 0.222166 84.1821C0.222166 84.1821 -0.277729 86.9871 0.222199 87.9171C0.722127 88.847 1.27844 88.9479 1.27844 88.9479L8.22217 90.9171C8.22217 90.9171 9.72217 91.4171 10.7222 90.9171C11.7222 90.4171 12.4007 88.5278 12.4007 88.5278L17.9053 58.5186V91.2881C17.9053 93.4673 29.0181 96.4296 40.219 96.417C51.4168 96.4296 62.5391 93.4673 62.5391 91.2881V58.5186L68.0342 88.5278C68.0342 88.5278 68.2222 89.546 69.2222 90.4171C70.2222 91.2881 70.8635 91.1681 70.8635 91.1681L79.1565 88.9479C79.1565 88.9479 79.7222 88.9479 80.2222 87.9171C80.7222 86.8863 80.2222 84.1821 80.2222 84.1821ZM30.6057 56.3805C30.6057 57.4448 31.4671 58.3038 32.5202 58.3038C33.5828 58.3038 34.4347 57.4416 34.4347 56.3805C34.4347 55.6477 34.0103 55.0256 33.4036 54.7034V35.4573C33.4036 34.971 33.0106 34.5699 32.5202 34.5699C32.0361 34.5699 31.6368 34.971 31.6368 35.4573V54.7034C31.0364 55.0224 30.6057 55.6477 30.6057 56.3805ZM40.219 5.15436C35.0791 5.15436 29.2222 10.93 29.2222 18.9171C29.2222 21.0899 29.4394 30.7074 40.219 30.7042C50.9955 30.7042 51.2222 21.0899 51.2222 18.9171C51.2222 10.9268 45.3558 5.15436 40.219 5.15436ZM47.0314 54.7034C46.4278 55.0224 46.0002 55.6477 46.0002 56.3805C46.0002 57.4416 46.8553 58.3038 47.9147 58.3038C48.9741 58.3038 49.8292 57.4448 49.8292 56.3805C49.8292 55.6477 49.4017 55.0256 48.7981 54.7034V35.4573C48.7981 34.971 48.402 34.5699 47.9147 34.5699C47.4275 34.5699 47.0314 34.971 47.0314 35.4573V54.7034Z" />
</svg>
