<svg width="79" height="79" viewBox="0 0 79 79" fill="none" xmlns="http://www.w3.org/2000/svg">
<path d="M5 34.5001C2.23858 34.5001 0 36.7386 0 39.5001C0 42.2615 2.23858 44.5001 5 44.5001V34.5001ZM74 44.5001C76.7614 44.5001 79 42.2615 79 39.5001C79 36.7386 76.7614 34.5001 74 34.5001V44.5001ZM44.5 5.00006C44.5 2.23864 42.2614 6.10352e-05 39.5 6.10352e-05C36.7386 6.10352e-05 34.5 2.23864 34.5 5.00006H44.5ZM34.5 74.0001C34.5 76.7615 36.7386 79.0001 39.5 79.0001C42.2614 79.0001 44.5 76.7615 44.5 74.0001H34.5ZM5 44.5001H39.5V34.5001H5V44.5001ZM39.5 44.5001H74V34.5001H39.5V44.5001ZM34.5 5.00006V39.5001H44.5V5.00006H34.5ZM44.5 74.0001V39.5001H34.5V74.0001H44.5Z" fill="#404040"/>
</svg>
