<svg width="76" height="74" viewBox="0 0 76 74" fill="none" xmlns="http://www.w3.org/2000/svg">
<path d="M75.8739 27.49C73.5578 29.859 63.814 35.3867 63.814 35.3867L59.6609 30.4118C58.6226 35.7815 59.2615 60.9718 59.6609 72.5009C43.8471 74.9489 26.4361 73.2116 17.6507 72.5009C18.6091 58.5239 16.9319 30.4118 16.9319 30.4118C16.9319 30.4118 14.6157 32.5439 12.6989 35.3077C7.26792 35.3867 0 28.5166 0 28.5166C0 28.5166 7.66726 14.6185 10.3827 10.1964C12.5392 6.72185 22.4427 2.69456 23.2414 2.22076C23.5608 2.06282 25.0783 1.35213 26.7555 0.562461C27.075 0.404528 27.3945 0.562461 27.5542 0.799361C29.3912 3.80009 33.3845 5.93218 38.0168 5.93218C42.6491 5.93218 46.7224 3.80009 48.5593 0.720394C48.719 0.483495 49.0385 0.325562 49.358 0.483495C53.2715 2.37869 59.1816 5.37942 61.5777 7.35358C65.2516 10.4333 73.1584 23.2258 75.8739 27.49Z"/>
</svg>
