<svg width="77" height="75" viewBox="0 0 77 75" fill="none" xmlns="http://www.w3.org/2000/svg">
<path d="M17.2711 30.9129C17.2711 30.9129 18.9484 59.025 17.9899 73.0021C22.22 73.3443 28.1534 73.9245 34.9345 74.1609V15C31.8542 10.7901 29.1834 3.40763 27.8935 1.30047C27.8024 1.16548 27.6596 1.05614 27.4944 1.01625C27.3551 1.03262 27.2217 1.04842 27.0948 1.06357C25.4176 1.85324 23.9001 2.56393 23.5807 2.72187C22.782 3.19567 12.8784 7.22295 10.722 10.6975C8.37963 14.512 5.4391 25.0508 4.33993 28.421C3.24076 31.7913 0.222168 61.6861 0.222168 61.6861C0.222168 61.6861 -0.27773 64.4911 0.222198 65.4211C0.722126 66.3511 1.27843 66.4519 1.27843 66.4519L8.22217 68.4211C8.22217 68.4211 9.72217 68.9211 10.7222 68.4211C11.7222 67.9211 12.4007 66.0319 12.4007 66.0319L17.2711 30.9129Z" />
<path d="M58.7222 73.0021C57.7638 59.025 59.441 30.9129 59.441 30.9129L64.3114 66.0318C64.3114 66.0318 64.99 67.921 65.99 68.421C66.99 68.921 68.49 68.421 68.49 68.421L75.4337 66.4518C75.4337 66.4518 75.99 66.351 76.49 65.421C76.9899 64.4911 76.49 61.6861 76.49 61.6861C76.49 61.6861 73.4714 31.7913 72.3722 28.421C71.273 25.0508 68.3325 14.512 65.9901 10.6975C63.8337 7.22296 53.9302 3.19567 53.1315 2.72187C52.812 2.56394 51.2946 1.85324 49.6173 1.06357C49.4981 1.04693 49.372 1.0295 49.2397 1.01141C49.0652 1.04659 48.9137 1.15956 48.8187 1.30047C47.5288 3.40763 45.493 10.7901 42.7909 15V74.2523C47.9377 74.1825 53.3484 73.8339 58.7222 73.0021Z" />
</svg>
