<svg width="32" height="32" viewBox="0 0 32 32" fill="none" xmlns="http://www.w3.org/2000/svg">
<path d="M19.66 3.00003C19.66 3.00003 18.2362 3.50003 16 3.50003C13.7638 3.50003 12.34 3.00003 12.34 3.00003C12.115 3.00004 11.8917 3.03807 11.6794 3.11253L2 6.50003L3.03938 12L6.09438 12.345C6.4685 12.3874 6.81302 12.5689 7.05952 12.8535C7.30603 13.1381 7.43649 13.5049 7.425 13.8813L7 29H25L24.575 13.8813C24.5635 13.5049 24.694 13.1381 24.9405 12.8535C25.187 12.5689 25.5315 12.3874 25.9056 12.345L28.9606 12L30 6.50003L20.3206 3.11253C20.1083 3.03807 19.885 3.00004 19.66 3.00003Z" stroke="black" stroke-width="2" stroke-linecap="round" stroke-linejoin="round"/>
<path d="M20.8319 3.29126C20.5485 4.35636 19.9211 5.29798 19.0473 5.96969C18.1735 6.64141 17.1022 7.00558 16 7.00558C14.8979 7.00558 13.8266 6.64141 12.9528 5.96969C12.0789 5.29798 11.4516 4.35636 11.1682 3.29126" stroke="black" stroke-width="2" stroke-linecap="round" stroke-linejoin="round"/>
</svg>
