<svg width="77" height="74" viewBox="0 0 77 74" fill="none" xmlns="http://www.w3.org/2000/svg">
<path d="M58.7222 72.0021C42.9085 74.45 26.7753 72.7128 17.9899 72.0021C18.9484 58.025 17.2711 29.9129 17.2711 29.9129L12.4007 65.0319C12.4007 65.0319 11.7222 66.9211 10.7222 67.4211C9.72217 67.9211 8.22217 67.4211 8.22217 67.4211L1.27843 65.4519C1.27843 65.4519 0.722126 65.3511 0.222198 64.4211C-0.27773 63.4911 0.222168 60.6861 0.222168 60.6861C0.222168 60.6861 3.24076 30.7913 4.33993 27.421C5.4391 24.0508 8.37963 13.512 10.722 9.69748C12.8784 6.22295 22.782 2.19567 23.5807 1.72187C23.9001 1.56393 25.4176 0.853238 27.0948 0.0635729C27.4143 -0.0943601 27.7337 0.0635727 27.8935 0.300472C29.7304 3.3012 33.7238 5.43329 38.3561 5.43329C42.9884 5.43329 46.9817 3.3012 48.8187 0.300473C48.9784 0.0635732 49.2979 -0.0943601 49.6173 0.0635729C51.2946 0.853238 52.812 1.56394 53.1315 1.72187C53.9302 2.19567 63.8337 6.22296 65.9901 9.69749C68.3325 13.512 71.273 24.0508 72.3722 27.421C73.4714 30.7913 76.49 60.6861 76.49 60.6861C76.49 60.6861 76.9899 63.4911 76.49 64.421C75.99 65.351 75.4337 65.4518 75.4337 65.4518L68.49 67.421C68.49 67.421 66.99 67.921 65.99 67.421C64.99 66.921 64.3114 65.0318 64.3114 65.0318L59.441 29.9129C59.441 29.9129 57.7638 58.025 58.7222 72.0021Z" />
</svg>
