<svg width="52" height="122" viewBox="0 0 52 122" fill="none" xmlns="http://www.w3.org/2000/svg">
<path d="M28.7893 116.241L28.979 120.2C28.979 120.535 29.1122 120.857 29.3494 121.094C29.5865 121.331 29.9082 121.464 30.2436 121.464H47.429C47.7644 121.464 48.086 121.331 48.3232 121.094C48.5603 120.857 48.6936 120.535 48.6936 120.2L51.7665 19.9575C51.7719 19.7846 51.7417 19.6124 51.6779 19.4516L47.1002 7.80498V1.68449C47.1002 1.3491 46.967 1.02746 46.7298 0.790304C46.4927 0.553152 46.171 0.419922 45.8357 0.419922H6.71001C6.37462 0.419922 6.05298 0.553152 5.81582 0.790304C5.57867 1.02746 5.44544 1.3491 5.44544 1.68449V7.80498L0.880362 19.439C0.874958 19.5063 0.874958 19.574 0.880362 19.6413C0.871911 19.7254 0.871911 19.8101 0.880362 19.8942L3.95326 120.136C3.95326 120.472 4.08649 120.793 4.32364 121.03C4.56079 121.268 4.88244 121.401 5.21782 121.401H22.3021C22.6375 121.401 22.9591 121.268 23.1963 121.03C23.4334 120.793 23.5667 120.472 23.5667 120.136L26.2728 62.3963L28.7261 114.85C28.5832 115.057 28.512 115.305 28.5234 115.557C28.5348 115.808 28.6282 116.048 28.7893 116.241Z" />
</svg>
